<svg xmlns="http://www.w3.org/2000/svg" height="80" width="200">
<!-- <text y="53.626469" x="83.244133" style="font-weight:700;font-size:28px;font-family:Verdana,sans-serif;fill:#f7a600" xml:space="preserve">RURAL</text>
<text y="72.282761" x="83.72509" style="font-weight:400;font-size:18px;font-family:Verdana,sans-serif;fill:#f7a600" xml:space="preserve">MUTUA ART</text>-->
<g style="display:inline">
<path style="fill:none;stroke:#f7a600;stroke-width:7" d="M28.661285 27.997068a17.141467 17.141467 0 0 1 34.280154.436575"/>
<path style="fill:none;stroke:#f7a600;stroke-width:7" d="M31.922699 71.038144c.000001-18.694192 15.119019-33.857273 33.796509-33.928446.044-.000168 13.22 0 13.26405 0"/>
<path style="fill:none;stroke:#f7a600;stroke-width:7" d="M45.851268 71.038144c0-10.909128 8.73426-19.780311 19.59127-19.997958.13592-.0027 13.40415 0 13.54072 0M12.625008 37.110222c.09842 0 16.018495-.000872 16.116851 0 5.853724.05091 11.596559 1.616287 16.669129 4.544933M12.841232 51.038143c.01026 0 15.625976.000008 15.63623.000024 3.500116.0054 6.937736.929229 9.969236 2.679469"/>
</g></svg>